/* XPM */
static char *dummy[]={
"6 24 4 1",
". c #000000",
"b c #232424",
"# c #434444",
"a c #75507b",
"......",
"######",
"aaa.#b",
"aaa.#b",
"aaa.#b",
"aaa.#b",
"aaa.#b",
"aaa.#b",
"aaa.#b",
"aaa.#b",
"aaa.#b",
"aaa.#b",
"aaa.#b",
"aaa.#b",
"aaa.#b",
"aaa.#b",
"aaa.#b",
"aaa.#b",
"aaa.#b",
"aaa.#b",
"aaa.#b",
"aaa.#b",
"aaa.#b",
"......"};
