/* XPM */
static char *dummy[]={
"6 24 4 1",
". c #000000",
"a c #232424",
"# c #434444",
"b c #75507b",
"......",
"######",
"a#bbbb",
"a#bbbb",
"a#bbbb",
"a#bbbb",
"a#bbbb",
"a#bbbb",
"a#bbbb",
"a#bbbb",
"a#bbbb",
"a#bbbb",
"a#bbbb",
"a#bbbb",
"a#bbbb",
"a#bbbb",
"a#bbbb",
"a#bbbb",
"a#bbbb",
"a#bbbb",
"a#bbbb",
"a#bbbb",
"a#bbbb",
"......"};
